<?xml version="1.0" standalone="no"?>
<!DOCTYPE svg PUBLIC "-//W3C//DTD SVG 20010904//EN"
 "http://www.w3.org/TR/2001/REC-SVG-20010904/DTD/svg10.dtd">
<svg version="1.0" xmlns="http://www.w3.org/2000/svg"
 width="390.000000pt" height="420.000000pt" viewBox="0 0 390.000000 420.000000"
 preserveAspectRatio="xMidYMid meet">

<g transform="translate(0.000000,420.000000) scale(0.100000,-0.100000)"
fill="#000000" stroke="none">
<path d="M0 2100 l0 -2100 1950 0 1950 0 0 2100 0 2100 -1950 0 -1950 0 0
-2100z m1961 642 c19 -10 117 -77 216 -150 131 -95 184 -140 193 -162 12 -29
7 -49 -61 -263 -53 -168 -81 -240 -101 -262 l-26 -30 -166 -3 c-91 -2 -166 0
-166 3 0 3 5 15 10 26 10 17 23 19 159 19 115 0 151 3 160 14 17 20 151 426
151 456 0 14 -4 30 -8 36 -15 25 -385 284 -404 284 -23 0 -395 -266 -409 -292
-7 -13 1 -50 27 -133 31 -96 35 -117 24 -130 -7 -9 -17 -12 -21 -8 -12 13 -79
227 -79 254 0 14 7 34 15 46 16 23 353 273 402 298 36 19 42 19 84 -3z m-31
-491 c-1 -9 -9 -41 -20 -71 -11 -30 -19 -72 -20 -93 0 -34 -4 -39 -37 -53 -21
-9 -57 -34 -79 -56 l-42 -40 -36 24 c-19 13 -45 36 -56 51 l-22 27 36 42 c22
25 39 57 42 80 6 35 9 38 62 54 31 8 77 26 101 39 48 24 71 23 71 -4z m-320
-253 c-1 -19 -49 -70 -62 -66 -6 2 3 20 22 41 35 40 40 43 40 25z m10 -35 c0
-15 -52 -73 -61 -68 -5 4 3 22 17 41 24 31 44 44 44 27z m10 -40 c-1 -9 -57
-73 -65 -73 -13 0 -2 27 22 52 26 27 43 36 43 21z m40 -1 c0 -4 -16 -23 -35
-42 -41 -40 -48 -20 -8 22 27 28 43 35 43 20z m40 0 c0 -14 -58 -77 -65 -70
-4 4 5 23 20 42 26 34 45 46 45 28z m-800 -292 c41 -41 9 -100 -55 -100 -31 0
-35 -3 -35 -25 0 -18 -5 -25 -20 -25 -18 0 -20 7 -20 85 l0 85 55 0 c42 0 60
-5 75 -20z m170 5 c0 -11 -12 -15 -45 -15 -38 0 -45 -3 -45 -20 0 -17 7 -20
40 -20 29 0 40 -4 40 -15 0 -11 -11 -15 -40 -15 -33 0 -40 -3 -40 -20 0 -17 7
-20 45 -20 33 0 45 -4 45 -15 0 -12 -14 -15 -65 -15 l-65 0 0 85 0 85 65 0
c51 0 65 -3 65 -15z m101 -31 l34 -46 3 46 c3 38 7 46 23 46 17 0 19 -7 19
-85 0 -74 -2 -85 -17 -85 -10 1 -34 22 -53 48 l-35 47 -3 -47 c-3 -40 -6 -48
-23 -48 -17 0 -19 7 -19 85 0 75 2 85 18 85 10 0 34 -21 53 -46z m249 31 c0
-9 -9 -15 -25 -15 -24 0 -25 -2 -25 -70 0 -63 -2 -70 -20 -70 -18 0 -20 7 -20
70 0 68 -1 70 -25 70 -16 0 -25 6 -25 15 0 12 14 15 70 15 56 0 70 -3 70 -15z
m138 -63 c17 -42 32 -80 32 -85 0 -16 -39 -6 -45 13 -5 15 -15 20 -45 20 -29
0 -39 -4 -43 -20 -3 -12 -14 -20 -27 -20 -14 0 -20 5 -17 13 78 189 95 198
145 79z m185 64 c15 -12 15 -15 3 -25 -11 -9 -20 -10 -36 -1 -17 9 -26 8 -46
-5 -31 -20 -32 -59 0 -80 30 -20 56 -10 56 21 0 17 6 24 20 24 28 0 29 -65 1
-80 -36 -19 -90 -12 -116 15 -55 54 -16 145 62 145 21 0 46 -7 56 -14z m191
-11 c57 -53 17 -145 -64 -145 -25 0 -45 8 -64 25 -57 53 -17 145 64 145 25 0
45 -8 64 -25z m126 -23 l35 -47 3 48 c3 39 6 47 23 47 17 0 19 -7 19 -85 0
-76 -2 -85 -18 -85 -11 0 -33 21 -53 48 l-34 47 -3 -47 c-3 -40 -6 -48 -23
-48 -17 0 -19 7 -19 85 0 74 2 85 18 85 9 -1 33 -22 52 -48z m244 42 c30 -12
16 -19 -30 -15 -43 3 -45 2 -42 -20 2 -18 14 -27 48 -39 34 -12 46 -21 48 -40
6 -39 -50 -64 -102 -44 -33 13 -14 21 35 16 48 -4 51 -4 47 18 -2 16 -15 27
-48 39 -34 12 -46 22 -48 41 -6 39 44 62 92 44z m171 -8 c11 -8 18 -26 18 -46
0 -41 -24 -60 -75 -60 -34 0 -38 -3 -38 -25 0 -14 -4 -25 -10 -25 -6 0 -10 35
-10 85 l0 85 48 0 c27 0 57 -6 67 -14z m156 -74 c21 -45 34 -82 28 -82 -5 0
-15 11 -21 25 -9 21 -18 25 -55 25 -37 0 -45 -4 -55 -25 -10 -22 -35 -38 -26
-17 36 87 74 162 82 159 5 -2 27 -40 47 -85z m163 82 c30 -11 16 -19 -27 -16
-53 5 -77 -15 -77 -62 0 -49 28 -70 87 -63 43 4 46 4 28 -9 -53 -39 -135 6
-135 73 0 61 64 100 124 77z m171 -4 c-3 -5 -26 -10 -51 -10 -42 0 -44 -1 -44
-30 0 -29 2 -30 46 -30 27 0 43 -4 39 -10 -3 -5 -24 -10 -46 -10 -35 0 -39 -3
-39 -25 0 -23 3 -25 50 -25 28 0 50 -4 50 -10 0 -6 -27 -10 -60 -10 l-60 0 0
85 0 85 61 0 c37 0 58 -4 54 -10z m-1979 -286 c10 -17 12 -16 27 13 28 53 37
49 36 -14 -2 -54 -2 -55 -8 -18 l-6 40 -18 -32 c-10 -18 -20 -33 -22 -33 -2 0
-12 15 -22 33 l-18 32 -6 -40 c-6 -36 -6 -34 -7 20 -1 58 -1 59 16 39 9 -12
22 -30 28 -40z m564 46 c0 -5 -4 -10 -10 -10 -5 0 -10 5 -10 10 0 6 5 10 10
10 6 0 10 -4 10 -10z m383 3 c-20 -4 -23 -11 -25 -56 l-2 -52 -3 52 c-3 44 -7
52 -26 56 -12 2 1 4 28 4 28 0 40 -2 28 -4z m77 -28 c22 0 25 -4 26 -40 1 -29
0 -32 -3 -10 -2 17 -9 34 -13 39 -13 14 -38 -11 -43 -42 -2 -15 -4 0 -5 33 0
33 3 51 6 40 5 -13 16 -20 32 -20z m283 28 c-27 -4 -33 -9 -33 -29 0 -20 5
-24 33 -26 l32 -1 -32 -4 c-23 -3 -33 -10 -36 -26 -2 -12 -5 4 -6 36 l-1 57
38 -2 c36 -1 36 -1 5 -5z m-973 -26 c12 -4 11 -6 -2 -6 -13 -1 -18 -9 -18 -30
0 -20 6 -31 18 -34 13 -4 11 -5 -5 -6 -20 -1 -23 4 -23 34 0 19 -5 35 -10 35
-6 0 -5 6 2 14 7 8 15 10 18 6 3 -4 12 -10 20 -13z m1180 0 c12 -4 11 -6 -3
-6 -14 -1 -18 -8 -15 -28 2 -16 8 -27 16 -25 6 1 12 -3 12 -9 0 -6 -8 -9 -17
-7 -12 2 -20 16 -23 38 -6 38 -1 68 9 52 3 -5 13 -12 21 -15z m-1342 -40 c3
-38 3 -38 -30 -35 -41 4 -45 31 -6 38 20 4 25 9 19 19 -6 8 -16 11 -31 6 -16
-5 -20 -4 -15 5 4 6 19 10 33 8 23 -3 27 -8 30 -41z m86 34 c4 -5 -2 -7 -13
-4 -10 3 -22 0 -25 -6 -4 -6 4 -13 19 -17 17 -4 25 -12 23 -23 -4 -18 -36 -27
-50 -13 -6 6 0 8 16 5 33 -7 34 13 1 21 -24 6 -33 25 -18 39 9 10 41 8 47 -2z
m174 -3 c22 -22 13 -38 -19 -38 -19 0 -28 -4 -23 -11 3 -6 15 -9 25 -6 11 3
17 1 13 -4 -15 -24 -64 -1 -64 31 0 9 5 21 12 28 7 7 19 12 28 12 9 0 21 -5
28 -12z m74 3 c-8 -5 -18 -24 -22 -42 l-8 -34 -1 43 c-1 37 2 42 22 42 16 0
18 -3 9 -9z m55 -53 c-2 -13 -4 -3 -4 22 0 25 2 35 4 23 2 -13 2 -33 0 -45z
m109 17 c1 -29 0 -32 -3 -10 -2 17 -9 34 -13 39 -13 14 -38 -11 -43 -42 -3
-19 -4 -15 -6 14 -1 40 0 41 32 40 30 -1 32 -3 33 -41z m124 0 c0 -23 -5 -46
-12 -53 -14 -14 -54 -16 -63 -2 -4 6 5 7 23 4 21 -4 31 -2 35 9 4 11 0 13 -14
10 -25 -7 -49 14 -49 42 0 26 13 34 53 32 25 -1 27 -5 27 -42z m368 33 c22
-22 13 -38 -19 -38 -19 0 -28 -4 -23 -11 3 -6 15 -9 25 -6 11 3 17 1 13 -4
-15 -24 -64 -1 -64 31 0 9 5 21 12 28 7 7 19 12 28 12 9 0 21 -5 28 -12z m216
-31 c9 -40 39 -32 47 13 l6 35 2 -41 c1 -40 0 -41 -31 -40 -31 1 -33 3 -35 41
-2 42 1 39 11 -8z m190 0 c9 -40 39 -32 47 13 l6 35 2 -41 c1 -40 0 -41 -31
-40 -31 1 -33 3 -35 41 -2 42 1 39 11 -8z m133 30 c-9 -7 -18 -25 -20 -42 -3
-25 -4 -23 -6 10 -1 35 2 41 20 42 19 2 19 0 6 -10z m101 1 c22 -22 13 -38
-19 -38 -19 0 -28 -4 -23 -11 3 -6 15 -9 25 -6 11 3 17 1 13 -4 -8 -13 -38
-11 -52 3 -24 24 -7 68 28 68 9 0 21 -5 28 -12z"/>
<path d="M1789 2197 c-52 -19 -57 -23 -73 -71 l-18 -50 32 -29 c17 -15 35 -26
38 -24 4 2 26 12 49 23 38 17 42 23 47 67 4 26 10 55 13 65 11 31 -48 -30 -63
-65 -16 -37 -26 -45 -48 -37 -22 8 -20 43 2 52 20 8 100 93 86 91 -5 -1 -34
-11 -65 -22z"/>
<path d="M1665 2051 c-9 -16 10 -45 39 -61 43 -23 47 2 5 38 -22 19 -40 29
-44 23z"/>
<path d="M820 1590 c0 -25 4 -30 24 -30 33 0 53 25 36 45 -7 8 -23 15 -36 15
-20 0 -24 -5 -24 -30z"/>
<path d="M1501 1582 c-15 -28 -14 -32 9 -32 21 0 26 16 11 39 -7 11 -11 10
-20 -7z"/>
<path d="M1852 1604 c-30 -21 -29 -59 3 -80 23 -15 27 -15 50 0 32 21 33 59 3
80 -12 9 -25 16 -28 16 -3 0 -16 -7 -28 -16z"/>
<path d="M2390 1590 l0 -41 41 3 c80 6 80 70 0 76 l-41 3 0 -41z"/>
<path d="M2576 1592 c-23 -45 -20 -52 19 -52 40 0 41 3 16 49 l-18 35 -17 -32z"/>
<path d="M1120 1320 c0 -5 6 -10 14 -10 8 0 18 5 21 10 3 6 -3 10 -14 10 -12
0 -21 -4 -21 -10z"/>
<path d="M1387 1364 c-13 -13 -7 -24 14 -24 11 0 19 5 17 12 -5 14 -22 21 -31
12z"/>
<path d="M1730 1354 c-11 -12 -10 -18 3 -32 16 -15 18 -15 34 0 13 14 14 20 3
32 -7 9 -16 16 -20 16 -4 0 -13 -7 -20 -16z"/>
<path d="M2117 1364 c-13 -13 -7 -24 14 -24 11 0 19 5 17 12 -5 14 -22 21 -31
12z"/>
<path d="M2757 1364 c-13 -13 -7 -24 14 -24 11 0 19 5 17 12 -5 14 -22 21 -31
12z"/>
</g>
</svg>
