<?xml version="1.0" standalone="no"?>
<!DOCTYPE svg PUBLIC "-//W3C//DTD SVG 20010904//EN"
 "http://www.w3.org/TR/2001/REC-SVG-20010904/DTD/svg10.dtd">
<svg version="1.0" xmlns="http://www.w3.org/2000/svg"
 width="1280.000000pt" height="633.000000pt" viewBox="0 0 1280.000000 633.000000"
 preserveAspectRatio="xMidYMid meet">

<g transform="translate(0.000000,633.000000) scale(0.100000,-0.100000)"
fill="#000000" stroke="none">
<path d="M0 3252 l0 -3078 513 58 c1015 114 1405 158 1562 173 88 9 360 38
605 66 918 103 1597 178 1670 184 41 4 314 34 605 66 1030 115 990 112 1120
105 176 -9 1469 -138 1475 -147 3 -4 192 -26 420 -49 864 -85 1337 -132 2040
-204 399 -41 761 -78 805 -81 106 -8 440 -41 1254 -125 370 -39 686 -70 702
-70 l29 0 0 3090 0 3090 -3254 0 c-2826 0 -3255 -2 -3259 -14 -3 -8 -2 -29 3
-46 5 -18 6 -50 2 -73 -4 -23 -7 -61 -6 -85 2 -40 0 -44 -54 -86 -32 -23 -124
-87 -207 -141 -288 -188 -373 -245 -385 -260 -7 -8 -17 -15 -22 -15 -5 0 -52
-30 -104 -66 -53 -36 -102 -68 -110 -71 -10 -4 -25 18 -50 73 l-35 78 48 43
c26 23 42 42 34 43 -7 0 -29 -13 -48 -30 -18 -16 -38 -30 -42 -30 -20 0 -31
71 -31 202 0 106 3 138 13 136 6 -2 30 10 52 27 22 16 42 30 44 32 8 5 -21 33
-29 28 -5 -3 -11 -1 -15 5 -4 6 -11 8 -16 5 -21 -13 -30 8 -11 25 14 13 33 18
68 16 27 -1 60 1 74 5 24 7 24 7 -7 14 -18 4 -33 11 -33 16 0 5 -7 6 -15 3
-25 -10 -17 10 19 43 18 18 37 29 40 25 4 -4 42 -7 84 -7 71 0 76 -2 82 -23 5
-21 9 -20 73 34 37 31 67 63 67 70 0 7 8 15 18 17 12 3 10 5 -7 6 -13 0 -37
-10 -53 -24 -35 -29 -51 -25 -23 5 l18 20 -2861 0 -2862 0 0 -3078z m10295
2387 c227 -19 449 -75 670 -169 590 -250 1064 -802 1214 -1415 52 -215 63
-289 68 -497 6 -209 -3 -315 -39 -493 -11 -55 -21 -109 -23 -120 -1 -11 -19
-69 -39 -130 -68 -203 -214 -478 -331 -625 -214 -269 -445 -462 -715 -599
-247 -126 -428 -185 -664 -217 -126 -18 -436 -25 -536 -12 -297 37 -438 78
-690 199 -490 236 -866 641 -1065 1148 -176 449 -198 925 -65 1386 36 125 116
322 177 435 211 394 614 766 1013 935 352 148 680 204 1025 174z m-2621 -103
c108 -37 182 -81 251 -151 190 -191 236 -463 118 -704 -50 -103 -169 -224
-265 -270 -262 -124 -549 -81 -743 114 -120 119 -176 257 -176 429 0 266 154
483 408 576 130 47 277 49 407 6z m-1444 -274 c0 -5 -17 -17 -37 -27 -21 -10
-45 -22 -54 -26 -51 -25 -89 -37 -89 -29 0 8 12 15 80 44 8 4 31 16 50 26 39
21 50 24 50 12z m-190 -92 c0 -5 -4 -10 -10 -10 -5 0 -10 5 -10 10 0 6 5 10
10 10 6 0 10 -4 10 -10z m-30 -14 c0 -11 -19 -15 -25 -6 -3 5 1 10 9 10 9 0
16 -2 16 -4z m-91 -162 c1 -37 -2 -43 -30 -55 -28 -11 -33 -10 -45 6 -8 10
-14 25 -14 33 0 24 20 52 38 53 13 0 13 2 3 6 -10 4 -8 9 10 19 29 15 37 2 38
-62z m-132 -46 c-3 -7 -5 -2 -5 12 0 14 2 19 5 13 2 -7 2 -19 0 -25z m-47 -13
c0 -19 -10 -29 -40 -45 l-41 -21 -13 33 c-17 38 -17 38 26 48 59 14 68 12 68
-15z m180 -56 c0 -6 9 -9 20 -6 41 11 39 -96 -3 -109 -12 -3 -30 -13 -39 -21
-9 -8 -27 -13 -40 -11 -19 2 -23 10 -26 45 -3 39 -1 43 33 59 20 9 34 19 31
21 -2 3 -13 0 -24 -6 -25 -13 -42 -14 -42 -3 0 9 58 40 78 41 6 1 12 -4 12
-10z m-194 -84 c-21 -16 -32 -13 -21 4 3 6 14 11 23 11 15 -1 15 -2 -2 -15z
m64 -45 c0 -34 -3 -40 -22 -40 -20 0 -20 1 -5 18 10 10 17 28 17 40 0 12 2 22
5 22 3 0 5 -18 5 -40z m-50 11 c0 -11 -4 -22 -9 -25 -11 -7 -23 22 -15 35 9
16 24 10 24 -10z m167 -77 c12 -12 13 -20 5 -37 -16 -34 -25 -61 -26 -77 -1
-8 -12 -17 -25 -18 -15 -2 -21 0 -17 7 4 6 2 11 -3 11 -7 0 -11 24 -11 59 0
48 3 60 18 64 32 9 43 7 59 -9z m-113 -35 c3 -17 6 -43 6 -58 -1 -24 -2 -24
-21 12 -11 22 -17 46 -14 58 9 28 22 23 29 -12z m446 0 c0 -5 -7 -9 -15 -9
-15 0 -20 12 -9 23 8 8 24 -1 24 -14z m-90 -30 c0 -5 -7 -9 -15 -9 -15 0 -20
12 -9 23 8 8 24 -1 24 -14z m-94 -20 c10 -17 -13 -36 -27 -22 -12 12 -4 33 11
33 5 0 12 -5 16 -11z m-156 -94 c0 -17 -7 -28 -22 -34 -43 -16 -68 32 -25 49
37 15 47 11 47 -15z m441 -222 c11 -31 0 -43 -42 -43 -19 0 -28 6 -32 22 -13
50 55 69 74 21z m-331 -3 c0 -5 -5 -10 -11 -10 -5 0 -7 5 -4 10 3 6 8 10 11
10 2 0 4 -4 4 -10z m200 -29 c0 -5 -7 -12 -16 -15 -22 -9 -24 -8 -24 9 0 8 9
15 20 15 11 0 20 -4 20 -9z m1088 -287 c414 -83 611 -543 391 -910 -69 -115
-221 -223 -364 -259 -69 -18 -202 -20 -277 -4 -70 14 -201 78 -258 126 -165
136 -244 352 -206 562 60 339 376 554 714 485z m-1037 -77 c-13 -13 -26 -3
-16 12 3 6 11 8 17 5 6 -4 6 -10 -1 -17z m29 -192 c0 -1 -7 -8 -15 -15 -13
-10 -15 -9 -15 8 0 15 5 20 15 16 8 -4 15 -7 15 -9z m-72 -26 c-3 -8 -7 -3
-11 10 -4 17 -3 21 5 13 5 -5 8 -16 6 -23z m51 -78 c9 -6 12 -18 7 -36 -8 -32
-13 -29 -26 14 -9 32 -5 37 19 22z m1507 -1136 c109 -36 174 -78 254 -161 125
-132 183 -298 163 -464 -26 -205 -143 -370 -328 -461 -103 -50 -179 -69 -281
-69 -175 0 -316 59 -439 184 -189 191 -229 447 -107 680 86 165 265 290 457
320 71 11 203 -3 281 -29z"/>
<path d="M9961 5579 c-154 -12 -305 -44 -488 -105 -195 -64 -325 -127 -498
-243 -105 -70 -160 -116 -291 -246 -196 -195 -292 -325 -399 -540 -159 -321
-227 -602 -227 -940 -1 -547 199 -1054 573 -1449 323 -342 772 -571 1234 -631
145 -18 453 -14 590 9 267 45 569 162 788 306 480 314 809 807 913 1365 32
171 43 453 25 616 -30 260 -95 487 -197 692 -203 404 -470 688 -858 911 -241
139 -555 233 -856 256 -147 11 -156 11 -309 -1z m1049 -623 c93 -54 173 -113
273 -202 134 -120 177 -152 216 -159 l36 -7 -25 -14 c-14 -7 -20 -13 -14 -14
6 0 23 -18 38 -40 20 -30 33 -40 54 -41 26 0 26 -1 5 -9 -13 -5 -23 -17 -23
-25 0 -16 40 -105 101 -227 16 -32 26 -58 22 -58 -4 0 -2 -5 5 -12 7 -7 12
-21 12 -33 0 -12 5 -26 11 -32 15 -15 4 -43 -15 -43 -16 0 -31 34 -21 50 3 5
-1 10 -9 10 -9 0 -16 8 -16 19 0 10 -7 24 -15 31 -8 7 -15 18 -15 25 0 7 -12
32 -27 54 l-27 42 -13 -26 c-8 -14 -18 -23 -23 -20 -13 8 -13 -7 0 -39 12 -33
-3 -34 -24 -2 -11 17 -22 23 -36 19 -27 -7 -26 -18 13 -115 44 -109 61 -179
51 -220 -4 -18 -6 -48 -6 -66 2 -41 -13 -34 -28 14 -8 22 -17 33 -25 30 -9 -3
-25 27 -50 92 -21 53 -56 130 -78 170 -36 64 -47 75 -93 97 -80 38 -117 79
-154 170 -36 91 -130 252 -169 291 -14 15 -59 49 -98 76 -103 69 -98 73 20 13
47 -24 61 -27 76 -18 19 12 67 11 112 -1 23 -7 23 -6 5 8 -10 8 -16 21 -14 28
3 8 13 4 32 -15 15 -15 29 -27 31 -27 2 0 25 -14 51 -31 44 -30 108 -46 118
-30 9 14 -160 168 -266 242 -129 91 -124 86 -91 84 15 -1 57 -19 93 -39z
m-1215 -3 c4 -21 7 -44 8 -52 1 -10 -28 -23 -94 -42 -528 -153 -904 -560
-1021 -1102 -32 -148 -32 -428 0 -574 65 -300 234 -599 427 -756 47 -39 61
-45 120 -51 80 -8 146 -37 181 -80 14 -17 49 -67 78 -111 43 -68 60 -85 111
-113 59 -32 59 -33 20 -25 -22 4 -78 7 -125 6 -129 -3 -123 -2 -109 -19 21
-26 1 -28 -48 -4 -27 13 -57 27 -68 32 -35 15 -136 106 -125 113 16 10 -18 63
-82 128 -163 164 -283 330 -363 499 -262 554 -184 1187 205 1663 159 194 395
364 624 450 75 28 223 74 243 74 7 1 15 -16 18 -36z m1045 -49 c0 -2 -7 -4
-15 -4 -8 0 -15 4 -15 10 0 5 7 7 15 4 8 -4 15 -8 15 -10z m190 -116 c0 -13
-23 -5 -28 10 -2 7 2 10 12 6 9 -3 16 -11 16 -16z m454 -29 c39 -43 27 -46
-14 -4 -19 19 -29 35 -24 35 6 0 23 -14 38 -31z m151 -180 c12 -19 -5 -23 -22
-6 -16 16 -16 17 -1 17 9 0 20 -5 23 -11z m30 -49 c3 -5 2 -10 -4 -10 -5 0
-13 5 -16 10 -3 6 -2 10 4 10 5 0 13 -4 16 -10z m-674 -140 c101 -74 111 -83
150 -142 22 -32 54 -91 70 -131 140 -335 165 -449 156 -715 -5 -166 -24 -265
-81 -415 -143 -378 -471 -670 -871 -773 -277 -72 -544 -50 -830 68 -66 27
-126 50 -132 51 -7 0 -13 5 -13 10 0 6 -3 7 -7 4 -3 -4 -18 1 -32 10 -43 28
-199 183 -260 259 -61 75 -156 222 -149 229 2 2 27 -31 56 -75 100 -151 249
-289 434 -404 346 -214 771 -234 1155 -56 320 149 566 436 672 785 73 239 68
537 -14 765 -32 89 -108 238 -139 271 -12 13 -54 67 -93 119 -40 52 -82 106
-95 120 -66 72 -58 79 23 20z m50 -152 c7 -13 21 -31 33 -41 17 -15 18 -20 6
-27 -13 -8 -12 -10 3 -10 9 0 17 -4 17 -10 0 -21 -45 9 -53 36 -6 16 -14 32
-20 35 -5 4 -7 11 -3 17 3 6 0 13 -6 15 -10 4 -10 6 -1 6 7 1 18 -9 24 -21z
m745 -73 c1 -14 -4 -25 -11 -25 -15 0 -28 27 -19 41 11 18 29 8 30 -16z
m-1624 -3 c104 -68 181 -130 194 -154 8 -15 12 -28 8 -28 -10 0 -154 102 -187
133 -43 40 -74 38 -138 -10 -30 -22 -65 -46 -78 -53 l-23 -12 18 33 c21 35
127 109 159 109 11 0 32 -8 47 -18z m1441 -134 c6 -22 5 -22 -8 -4 -17 22 -20
40 -6 32 5 -3 11 -16 14 -28z m-1673 -2 c0 -5 -146 -105 -164 -112 -10 -4 -16
-1 -16 8 0 20 51 56 119 84 63 26 61 25 61 20z m1815 -16 c0 -22 -39 -19 -43
3 -3 15 1 18 20 15 12 -2 23 -10 23 -18z m15 -50 c0 -13 -7 -20 -20 -20 -19 0
-27 20 -13 33 13 14 33 6 33 -13z m-1280 -64 c14 -18 8 -51 -14 -81 -21 -30
-29 -13 -15 34 12 40 11 43 -17 73 l-29 31 31 -21 c17 -12 37 -28 44 -36z
m1295 4 c0 -8 -8 -16 -17 -18 -13 -2 -18 3 -18 18 0 15 5 20 18 18 9 -2 17
-10 17 -18z m13 -57 c-2 -10 -10 -18 -18 -18 -8 0 -16 8 -18 18 -2 12 3 17 18
17 15 0 20 -5 18 -17z m-2012 -58 c7 -19 14 -42 14 -50 0 -25 -17 -9 -23 22
-3 16 -9 36 -12 46 -13 33 6 17 21 -18z m347 -16 c-1 -13 -9 -51 -17 -84 -9
-33 -18 -72 -21 -87 -3 -18 -12 -28 -23 -28 -9 0 -30 -9 -47 -20 -16 -11 -35
-20 -41 -20 -19 0 -74 56 -74 75 0 12 8 9 31 -14 17 -17 37 -31 44 -31 29 0
85 42 91 69 3 14 10 39 15 55 5 16 7 32 4 34 -8 8 -64 -59 -71 -85 -7 -26 -44
-32 -44 -8 0 9 21 35 47 60 25 25 44 47 41 50 -3 3 -21 -2 -41 -10 -43 -18
-80 -20 -75 -3 2 6 22 16 44 23 21 6 57 21 79 33 48 25 61 23 58 -9z m1677 16
c0 -8 -9 -15 -20 -15 -11 0 -20 7 -20 15 0 8 9 15 20 15 11 0 20 -7 20 -15z
m0 -54 c0 -17 -18 -21 -24 -6 -3 9 0 15 9 15 8 0 15 -4 15 -9z m-1377 -78 c-9
-27 -18 -50 -21 -53 -6 -6 5 41 18 75 17 44 19 27 3 -22z m-623 -162 c0 -12
-20 -25 -27 -18 -7 7 6 27 18 27 5 0 9 -4 9 -9z m407 -23 c-64 -6 -103 -5
-115 1 -12 7 16 10 98 9 l115 -1 -98 -9z m-794 -195 c-13 -2 -33 -2 -45 0 -13
2 -3 4 22 4 25 0 35 -2 23 -4z m153 -64 c0 -32 -2 -59 -5 -58 -3 0 -17 14 -30
32 -14 18 -18 26 -11 20 24 -22 30 -15 30 34 0 25 3 43 7 39 4 -4 8 -34 9 -67z
m129 61 c4 -6 -5 -10 -19 -10 -25 0 -26 -3 -26 -57 0 -31 -3 -53 -7 -49 -4 4
-8 28 -8 54 0 41 -3 47 -22 50 -13 2 -23 8 -23 13 0 12 97 12 105 -1z m220 0
c4 -6 -6 -10 -24 -10 -22 0 -35 -7 -47 -25 -15 -23 -15 -27 0 -50 18 -27 54
-33 74 -13 20 20 14 38 -12 38 -14 0 -28 5 -31 10 -4 6 10 10 34 10 39 0 41
-2 41 -29 0 -55 -70 -81 -110 -41 -27 27 -26 74 2 100 23 21 63 27 73 10z
m143 4 c32 -9 55 -56 42 -88 -27 -72 -130 -53 -130 24 0 31 30 70 53 70 6 0
22 -3 35 -6z m162 -41 c0 26 5 47 10 47 6 0 10 -31 10 -72 l-1 -73 -44 50 -45
49 0 -47 c0 -26 -4 -47 -10 -47 -6 0 -10 30 -10 71 l0 71 45 -49 44 -48 1 48z
m215 38 c3 -5 -9 -11 -27 -13 -40 -4 -43 -19 -5 -29 83 -22 74 -89 -12 -89
-47 0 -46 18 1 22 31 2 44 8 46 21 4 17 -2 21 -50 31 -21 5 -28 12 -28 30 0
14 6 27 13 29 21 9 56 7 62 -2z m143 0 c8 -4 12 -19 10 -32 -2 -20 -10 -25
-40 -27 -36 -3 -38 -5 -38 -38 0 -19 -4 -34 -10 -34 -5 0 -10 15 -10 33 0 18
-5 38 -12 45 -9 9 -9 12 0 12 7 0 12 11 12 25 0 22 4 25 38 25 20 0 43 -4 50
-9z m102 -51 c33 -66 39 -90 16 -71 -8 7 -17 23 -20 36 -10 38 -43 32 -60 -10
-8 -19 -20 -35 -25 -35 -14 0 -14 6 4 41 9 16 13 34 10 39 -3 6 -1 10 5 10 6
0 16 11 22 25 6 14 13 25 14 25 2 0 17 -27 34 -60z m134 54 c25 -10 18 -25 -8
-18 -36 9 -66 -12 -66 -45 0 -37 22 -54 60 -49 32 5 41 -6 14 -16 -47 -18 -94
13 -94 64 0 51 47 82 94 64z m151 -4 c4 -6 -12 -10 -39 -10 -34 0 -46 -4 -46
-15 0 -10 11 -15 35 -15 19 0 35 -4 35 -10 0 -5 -16 -10 -35 -10 -31 0 -35 -3
-35 -25 0 -22 4 -25 39 -25 22 0 43 -4 46 -10 4 -6 -13 -10 -44 -10 l-51 0 0
34 c0 19 -5 38 -11 42 -8 4 -8 9 0 17 6 6 11 19 11 29 0 15 8 18 44 18 25 0
48 -4 51 -10z m-1494 -70 l-9 -55 -1 65 c-1 39 3 60 8 55 6 -6 6 -33 2 -65z
m312 8 c29 -65 30 -93 1 -36 -30 58 -47 58 -71 1 -8 -19 -17 -33 -20 -30 -12
12 39 128 56 127 3 -1 18 -28 34 -62z m-366 16 c-3 -3 -12 -4 -19 -1 -8 3 -5
6 6 6 11 1 17 -2 13 -5z m-60 -66 c-3 -7 -5 -2 -5 12 0 14 2 19 5 13 2 -7 2
-19 0 -25z m248 -115 c-4 -16 -7 -28 -8 -28 -1 0 -11 -5 -22 -11 -30 -17 -47
5 -29 37 l13 24 1 -22 c0 -14 6 -23 16 -23 8 0 13 4 10 9 -8 12 4 41 16 41 6
0 7 -11 3 -27z m543 17 c-9 -6 -19 -24 -23 -40 -4 -17 -11 -30 -16 -30 -5 0
-4 12 2 27 5 14 8 32 5 40 -4 9 3 13 22 13 22 -1 24 -2 10 -10z m38 -16 c-4
-15 -3 -23 3 -20 5 3 11 -1 15 -9 3 -8 1 -17 -4 -20 -6 -4 -10 -1 -10 6 0 8
-4 8 -15 -1 -18 -15 -19 -4 -4 39 13 37 24 41 15 5z m186 19 c-17 -3 -21 -9
-17 -24 4 -11 2 -19 -4 -19 -6 0 -11 -9 -11 -21 0 -11 -4 -18 -9 -14 -6 3 -6
18 -1 37 5 17 7 35 4 39 -3 5 10 8 28 8 24 -1 27 -3 10 -6z m105 -18 c0 -8 -4
-15 -9 -15 -4 0 -8 -10 -8 -22 0 -12 -3 -18 -7 -14 -11 11 -10 39 2 53 14 17
22 16 22 -2z m-715 -17 c-7 -7 -12 -8 -12 -2 0 14 12 26 19 19 2 -3 -1 -11 -7
-17z m-100 -15 c4 -13 -1 -18 -19 -19 -26 -2 -27 0 -12 27 11 22 24 18 31 -8z
m63 17 c3 -5 -1 -10 -10 -10 -11 0 -15 -5 -11 -15 3 -8 1 -15 -4 -15 -11 0
-14 33 -3 43 9 10 21 9 28 -3z m81 -26 c-13 -12 -16 -12 -16 -2 0 19 24 42 28
28 2 -5 -4 -17 -12 -26z m229 9 c-3 -16 -12 -33 -18 -40 -9 -10 -12 -6 -12 15
0 31 11 52 27 52 6 0 8 -11 3 -27z m230 17 c3 -6 -1 -13 -10 -16 -13 -6 -14
-8 -3 -15 10 -7 9 -9 -4 -9 -11 0 -18 7 -18 18 0 30 22 43 35 22z m375 -5 c0
-8 -5 -15 -11 -15 -5 0 -7 -4 -4 -10 3 -5 1 -10 -4 -10 -12 0 -15 33 -4 43 11
12 23 8 23 -8z m-775 -15 c-20 -23 -29 -21 -19 4 3 9 13 16 22 16 13 0 12 -3
-3 -20z m42 -12 c-3 -7 -5 -2 -5 12 0 14 2 19 5 13 2 -7 2 -19 0 -25z m73 8
c0 -6 -11 -12 -25 -12 -27 -2 -27 -2 -19 19 6 17 44 11 44 -7z m443 4 c-3 -11
-12 -20 -19 -20 -8 0 -14 9 -14 20 0 13 7 20 19 20 14 0 18 -5 14 -20z m117
12 c0 -10 -22 -32 -32 -32 -4 0 -8 9 -8 20 0 13 7 20 20 20 11 0 20 -4 20 -8z
m33 -12 c-10 -11 -18 -20 -19 -20 -1 0 0 9 3 20 3 11 12 20 19 20 11 0 10 -5
-3 -20z m-1447 -812 c9 -9 11 -19 6 -22 -9 -5 -82 56 -82 69 0 9 58 -27 76
-47z m67 -174 c18 -7 23 -20 10 -27 -5 -2 -19 8 -33 21 -14 14 -18 22 -10 18
8 -3 23 -9 33 -12z m245 -23 c3 -8 -1 -12 -9 -9 -7 2 -15 10 -17 17 -3 8 1 12
9 9 7 -2 15 -10 17 -17z m-138 -51 c0 -5 -4 -10 -10 -10 -5 0 -10 5 -10 10 0
6 5 10 10 10 6 0 10 -4 10 -10z m5 -200 c3 -5 1 -10 -4 -10 -6 0 -11 5 -11 10
0 6 2 10 4 10 3 0 8 -4 11 -10z"/>
<path d="M10008 3249 c-21 -12 -24 -59 -6 -77 18 -18 53 -15 71 6 22 24 21 45
-1 65 -21 19 -39 21 -64 6z"/>
<path d="M10510 3245 c0 -10 10 -15 30 -15 20 0 30 5 30 15 0 10 -10 15 -30
15 -20 0 -30 -5 -30 -15z"/>
<path d="M7405 5513 c-109 -14 -247 -79 -322 -151 -112 -108 -163 -217 -171
-369 -9 -185 38 -313 158 -433 275 -274 754 -204 920 134 41 83 70 190 70 261
0 69 -28 177 -66 254 -103 208 -350 336 -589 304z m310 -493 c15 -16 16 -25 7
-44 -6 -14 -21 -30 -33 -36 -21 -12 -21 -11 -5 11 21 31 20 65 -1 78 -15 9
-16 10 -2 11 9 0 24 -9 34 -20z m-409 -1 c-30 -18 0 -28 89 -31 61 -1 68 -3
30 -6 -65 -5 -175 7 -175 19 0 11 36 28 60 28 11 0 10 -3 -4 -10z m242 -26
c-10 -2 -26 -2 -35 0 -10 3 -2 5 17 5 19 0 27 -2 18 -5z m-83 -70 c75 4 105 3
93 -4 -47 -27 -258 -18 -258 11 0 15 25 17 40 2 11 -12 35 -14 125 -9z m-109
-64 c5 -8 35 -10 94 -7 90 5 133 -3 95 -19 -34 -14 -190 -10 -208 6 -9 7 -14
17 -11 22 7 12 21 11 30 -2z m-116 -54 l-25 -13 30 -13 c20 -9 86 -13 200 -13
101 0 152 -3 125 -8 -59 -9 -284 -9 -335 0 -49 9 -59 35 -18 50 40 15 52 14
23 -3z m407 -31 c-3 -3 -12 -4 -19 -1 -8 3 -5 6 6 6 11 1 17 -2 13 -5z m10
-40 c-3 -3 -12 -4 -19 -1 -8 3 -5 6 6 6 11 1 17 -2 13 -5z m-54 -11 c-7 -2
-21 -2 -30 0 -10 3 -4 5 12 5 17 0 24 -2 18 -5z"/>
<path d="M7040 3926 c-76 -17 -122 -39 -197 -92 -220 -157 -294 -457 -174
-711 17 -35 57 -90 96 -132 183 -193 477 -233 712 -95 69 40 163 139 201 210
72 137 86 306 38 449 -35 102 -72 159 -152 235 -111 103 -234 150 -389 149
-44 0 -105 -6 -135 -13z m173 -312 c45 -23 66 -44 88 -86 23 -46 25 -123 3
-177 l-16 -40 51 -61 c28 -34 51 -65 51 -70 0 -13 -30 -40 -45 -40 -7 0 -35
25 -61 56 -44 51 -51 55 -78 49 -117 -25 -191 -8 -238 56 -92 123 -43 284 100
330 36 11 105 3 145 -17z m169 -47 c-41 -40 -44 -41 -57 -23 -13 17 -10 22 28
57 37 33 44 36 57 23 13 -12 9 -19 -28 -57z m-468 -288 c-10 -12 -32 -30 -47
-41 -25 -18 -31 -19 -43 -6 -13 13 -9 20 32 57 42 40 47 42 62 27 14 -14 14
-17 -4 -37z"/>
<path d="M7050 3578 c-61 -32 -90 -77 -90 -143 0 -125 122 -200 236 -145 37
18 51 32 66 68 66 149 -72 292 -212 220z m125 -138 c5 0 21 12 37 27 24 23 28
24 34 10 9 -25 0 -42 -41 -72 l-36 -28 -37 36 -38 37 -39 -40 c-21 -21 -42
-37 -47 -34 -21 13 -5 51 39 91 l46 44 37 -36 c20 -19 40 -35 45 -35z"/>
<path d="M7450 2425 c-105 -24 -186 -69 -265 -149 -174 -176 -214 -406 -107
-624 34 -70 155 -199 219 -234 160 -87 380 -91 548 -8 120 59 229 185 276 320
31 90 31 239 0 324 -61 171 -189 301 -346 352 -100 33 -231 40 -325 19z m249
-299 c18 -17 21 -30 21 -106 0 -69 -3 -90 -16 -101 -11 -9 -55 -16 -126 -19
-131 -6 -148 -18 -148 -101 0 -47 -1 -49 -29 -49 -16 0 -37 3 -46 6 -63 24
-63 224 0 248 9 3 66 6 126 6 90 0 109 3 109 15 0 12 -14 15 -66 15 l-65 0 3
42 c4 58 28 70 134 66 64 -2 87 -7 103 -22z m122 -116 c30 -17 49 -64 49 -125
0 -61 -19 -108 -49 -125 -11 -5 -67 -10 -125 -10 -64 0 -106 -4 -106 -10 0 -6
29 -10 66 -10 l65 0 -3 -47 c-3 -46 -5 -49 -43 -61 -55 -19 -159 -10 -194 15
-23 17 -26 28 -29 84 -4 87 4 126 31 141 12 6 67 12 121 13 90 1 101 4 118 24
12 16 18 39 18 72 0 48 1 49 31 49 17 0 39 -5 50 -10z"/>
<path d="M7484 2106 c-8 -21 3 -36 27 -36 15 0 20 6 17 22 -4 27 -35 37 -44
14z"/>
<path d="M7644 1685 c-4 -9 -2 -21 4 -27 15 -15 44 -1 40 19 -4 23 -36 29 -44
8z"/>
<path d="M6002 6310 c-7 -13 -8 -20 -2 -20 6 0 13 7 17 16 3 8 12 13 19 10 8
-3 14 -1 14 4 0 18 -35 10 -48 -10z"/>
<path d="M6215 6320 c3 -5 13 -10 21 -10 8 0 14 5 14 10 0 6 -9 10 -21 10 -11
0 -17 -4 -14 -10z"/>
<path d="M6070 6294 c0 -10 -5 -14 -15 -10 -9 3 -18 -1 -21 -9 -4 -8 -12 -15
-20 -15 -8 0 -14 -10 -14 -25 0 -14 5 -25 10 -25 6 0 10 5 10 10 0 6 4 10 9
10 12 0 81 61 81 72 0 4 -9 8 -20 8 -12 0 -20 -7 -20 -16z"/>
<path d="M6182 6301 c2 -7 7 -12 11 -12 12 1 9 15 -3 20 -7 2 -11 -2 -8 -8z"/>
<path d="M5910 6248 c-25 -17 -47 -34 -50 -37 -3 -4 -23 -20 -45 -36 -22 -17
-42 -32 -45 -35 -3 -3 -27 -23 -55 -44 -67 -53 -109 -95 -102 -102 9 -10 97
45 142 88 22 21 44 38 48 38 5 0 25 16 45 35 20 19 44 37 54 40 9 3 24 21 33
41 9 19 20 32 25 29 5 -3 11 -1 15 5 12 20 -21 9 -65 -22z"/>
<path d="M6140 6270 c0 -5 7 -10 16 -10 8 0 12 5 9 10 -3 6 -10 10 -16 10 -5
0 -9 -4 -9 -10z"/>
<path d="M6070 6210 c0 -5 5 -10 10 -10 6 0 10 5 10 10 0 6 -4 10 -10 10 -5 0
-10 -4 -10 -10z"/>
<path d="M6032 6191 c2 -7 7 -12 11 -12 12 1 9 15 -3 20 -7 2 -11 -2 -8 -8z"/>
<path d="M5650 6155 c-7 -8 -20 -15 -29 -15 -17 0 -91 -65 -91 -79 0 -5 6 -13
13 -19 10 -9 22 -4 48 17 19 15 48 36 66 46 18 11 35 25 38 33 12 31 -23 44
-45 17z"/>
<path d="M6005 6161 c-3 -5 -1 -12 5 -16 5 -3 10 1 10 9 0 18 -6 21 -15 7z"/>
<path d="M5517 6123 c-12 -11 -7 -33 7 -33 12 0 26 20 26 36 0 7 -26 5 -33 -3z"/>
<path d="M5876 6072 c-27 -20 -56 -41 -65 -47 -112 -69 -203 -146 -181 -153
18 -6 113 58 193 131 16 15 33 27 38 27 4 0 27 18 51 40 55 50 29 52 -36 2z"/>
<path d="M6063 6098 c-13 -6 -23 -15 -23 -20 0 -4 -6 -8 -14 -8 -14 0 -26 -21
-26 -45 0 -24 40 -12 52 16 8 17 17 25 29 22 13 -4 16 1 12 21 -3 14 -6 26 -7
25 0 0 -11 -5 -23 -11z"/>
<path d="M5488 6073 c7 -3 16 -2 19 1 4 3 -2 6 -13 5 -11 0 -14 -3 -6 -6z"/>
<path d="M5415 6030 c-16 -16 -25 -30 -21 -30 18 0 76 42 70 51 -9 15 -19 11
-49 -21z"/>
<path d="M5325 5950 c-3 -5 -1 -10 4 -10 6 0 11 5 11 10 0 6 -2 10 -4 10 -3 0
-8 -4 -11 -10z"/>
<path d="M5536 5945 c-11 -8 -17 -17 -14 -21 7 -6 48 17 48 28 0 12 -13 9 -34
-7z"/>
<path d="M5586 5925 c-15 -14 -31 -25 -37 -25 -5 0 -9 -7 -9 -15 0 -8 6 -15
13 -15 15 1 77 56 77 70 0 17 -16 11 -44 -15z"/>
<path d="M5454 5877 c-22 -17 -48 -37 -59 -43 -10 -6 -21 -16 -23 -23 -7 -20
38 7 61 36 10 12 24 23 32 23 14 0 41 28 33 35 -2 3 -22 -10 -44 -28z"/>
<path d="M5538 5819 c-27 -15 -21 -29 7 -16 14 7 25 15 25 20 0 10 -11 8 -32
-4z"/>
<path d="M5460 5760 c-16 -13 -20 -20 -10 -19 16 0 50 22 50 33 0 11 -14 6
-40 -14z"/>
<path d="M5305 5759 c-11 -17 0 -20 21 -4 17 13 17 14 2 15 -9 0 -20 -5 -23
-11z"/>
<path d="M5598 5759 c-26 -14 -22 -32 5 -23 29 9 33 12 21 24 -5 5 -16 5 -26
-1z"/>
<path d="M5545 5709 c-4 -6 -4 -13 -1 -16 8 -8 36 5 36 17 0 13 -27 13 -35 -1z"/>
</g>
</svg>
